# xmcd
#
# Track frame offsets:
#	150
#	21781
#	28300
#	46376
#	66257
#
# Disc length: 1402 seconds
#
# Revision: 1
# Processed by: cddbd v1.5.2PL0 Copyright (c) Steve Scherf et al.
# Submitted via: audiograbber 1.83.01
#
DISCID=40057805
DTITLE=Treachery - Treachery
DYEAR=2008
DGENRE=Black Metal
TTITLE0=Inception
TTITLE1=Kiss the Fist
TTITLE2=Bound in Your Entrails
TTITLE3=Could Not Find Her Heart
TTITLE4=Enter Dominion
EXTD=
EXTT0=
EXTT1=
EXTT2=
EXTT3=
EXTT4=
PLAYORDER=
